<svg width="0" height="0" class="hidden">
  <symbol viewBox="0 0 24 24" xmlns="http://www.w3.org/2000/svg" id="wechat">
    <title>WeChat icon</title>
    <path d="M23.541 12.748c-.609-1.38-1.758-2.476-3.092-3.151-2.354-1.192-5.281-1.185-7.629.03-1.631.837-2.993 2.337-3.379 4.162-.318 1.344-.033 2.791.68 3.961 1.061 1.762 2.979 2.887 4.971 3.248 1.443.293 2.936.119 4.338-.285.842.326 1.592.854 2.408 1.246a52.471 52.471 0 0 0-.676-2.102c.916-.65 1.746-1.461 2.244-2.479.744-1.415.789-3.171.135-4.63zm-9.924-9.466c-2.495-1.404-5.602-1.615-8.286-.645-1.764.635-3.36 1.815-4.346 3.42-.895 1.45-1.23 3.258-.799 4.917.433 1.84 1.711 3.383 3.262 4.413-.3.85-.585 1.699-.855 2.555.975-.51 1.95-1.043 2.926-1.561 1.17.375 2.415.559 3.66.518a6.159 6.159 0 0 1-.255-2.951c.225-1.371.975-2.625 1.994-3.554 1.726-1.615 4.171-2.296 6.496-2.131-.436-2.135-1.936-3.939-3.824-4.98h.027zm1.733 9.989c-.209.652-1.156.848-1.615.352-.506-.459-.309-1.418.355-1.623.734-.31 1.582.537 1.26 1.271zm4.795.092c-.256.586-1.141.723-1.576.27-.209-.191-.27-.479-.344-.73.104-.458.42-.933.93-.955.705-.098 1.336.773.975 1.416h.015zM12.99 6.909c.008.961-1.275 1.561-1.995.909-.747-.535-.535-1.837.342-2.106.785-.315 1.713.344 1.651 1.185l.002.012zm-6.059.244c-.172.835-1.291 1.238-1.946.678-.759-.535-.546-1.861.345-2.131.873-.336 1.865.55 1.601 1.453z"></path>
  </symbol>
  
  <symbol viewBox="0 0 24 24" xmlns="http://www.w3.org/2000/svg" id="sinaweibo">
    <title>Sina Weibo icon</title>
    <path d="M10.098 20.323c-3.977.391-7.414-1.406-7.672-4.02-.259-2.609 2.759-5.047 6.74-5.441 3.979-.394 7.413 1.404 7.671 4.018.259 2.6-2.759 5.049-6.737 5.439l-.002.004zM9.05 17.219c-.384.616-1.208.884-1.829.602-.612-.279-.793-.991-.406-1.593.379-.595 1.176-.861 1.793-.601.622.263.82.972.442 1.592zm1.27-1.627c-.141.237-.449.353-.689.253-.236-.09-.313-.361-.177-.586.138-.227.436-.346.672-.24.239.09.315.36.18.601l.014-.028zm.176-2.719c-1.893-.493-4.033.45-4.857 2.118-.836 1.704-.026 3.591 1.886 4.21 1.983.64 4.318-.341 5.132-2.179.8-1.793-.201-3.642-2.161-4.149zm7.563-1.224c-.346-.105-.57-.18-.405-.615.375-.977.42-1.804 0-2.404-.781-1.112-2.915-1.053-5.364-.03 0 0-.766.331-.571-.271.376-1.217.315-2.224-.27-2.809-1.338-1.337-4.869.045-7.888 3.08C1.309 10.87 0 13.273 0 15.348c0 3.981 5.099 6.395 10.086 6.395 6.536 0 10.888-3.801 10.888-6.82 0-1.822-1.547-2.854-2.915-3.284v.01zm1.908-5.092a3.101 3.101 0 0 0-2.96-.962.786.786 0 0 0-.616.932.79.79 0 0 0 .932.602 1.512 1.512 0 0 1 1.442.465c.376.421.466.977.316 1.473a.786.786 0 0 0 .51.992.813.813 0 0 0 .992-.512 3.108 3.108 0 0 0-.646-3.035l.03.045zm2.418-2.195c-1.576-1.757-3.905-2.419-6.054-1.968a.91.91 0 0 0-.706 1.081.91.91 0 0 0 1.082.707 4.5 4.5 0 0 1 4.296 1.383 4.533 4.533 0 0 1 .947 4.416.91.91 0 0 0 .586 1.157c.479.165.991-.104 1.157-.586a6.387 6.387 0 0 0-1.338-6.235l.03.045z"></path>
  </symbol>
  
  <symbol viewBox="0 0 24 24" xmlns="http://www.w3.org/2000/svg" id="github">
    <title>GitHub icon</title>
    <path d="M12 .297c-6.63 0-12 5.373-12 12 0 5.303 3.438 9.8 8.205 11.385.6.113.82-.258.82-.577 0-.285-.01-1.04-.015-2.04-3.338.724-4.042-1.61-4.042-1.61C4.422 18.07 3.633 17.7 3.633 17.7c-1.087-.744.084-.729.084-.729 1.205.084 1.838 1.236 1.838 1.236 1.07 1.835 2.809 1.305 3.495.998.108-.776.417-1.305.76-1.605-2.665-.3-5.466-1.332-5.466-5.93 0-1.31.465-2.38 1.235-3.22-.135-.303-.54-1.523.105-3.176 0 0 1.005-.322 3.3 1.23.96-.267 1.98-.399 3-.405 1.02.006 2.04.138 3 .405 2.28-1.552 3.285-1.23 3.285-1.23.645 1.653.24 2.873.12 3.176.765.84 1.23 1.91 1.23 3.22 0 4.61-2.805 5.625-5.475 5.92.42.36.81 1.096.81 2.22 0 1.606-.015 2.896-.015 3.286 0 .315.21.69.825.57C20.565 22.092 24 17.592 24 12.297c0-6.627-5.373-12-12-12"></path>
  </symbol>
</svg>
